# xmcd
#
# Track frame offsets:
#	150
#	13305
#	21581
#	34391
#	48762
#	60271
#	67985
#	77676
#	84346
#	98992
#	121000
#	138420
#	155532
#	167176
#
# Disc length: 2403 seconds
#
# Revision: 0
# Processed by: cddbd v1.5.2PL0 Copyright (c) Steve Scherf et al.
# Submitted via: EasyCDDAExtractor 16.0.6.1
#
DISCID=af09610e
DTITLE=Συλλογικός δίσκος - Πάσχα Ελλήνων
DYEAR=2006
DGENRE=Παραδοσιακή
TTITLE0=Άγνωστος - Χειμαρριώτικο
TTITLE1=Άγνωστος - Μαύρα μάτια στο ποτήρι
TTITLE2=Άγνωστος - Συννέφιασε ο Παρνασσός
TTITLE3=Άγνωστος - Παπα Λάμπραινα
TTITLE4=Άγνωστος - Ήλιος
TTITLE5=Άγνωστος - Ένα πουλί μαντζουράνα μου
TTITLE6=Άγνωστος - Αγάπη μου ταξίδεψες
TTITLE7=Κονιτοπούλου Στέλλα - Μέσ' στου Αιγαίου τα νησιά
TTITLE8=Κονιτόπουλος Γιάννης - Μάτια σαν και τα δικά σου
TTITLE9=Κονιτοπούλου Στέλλα - Σ' αγαπώ γιατί είσαι ωραία
TTITLE10=Κονιτοπούλου Στέλλα - Τζιβαέρι
TTITLE11=Κόρου Κατερίνα - Δεν είμαι ψάρι, να με φας
TTITLE12=Κονιτοπούλου Στέλλα - Έχε γειά Παναγιά
TTITLE13=Κόρου Κατερίνα - Ο ψαράς
EXTD=
EXTT0=
EXTT1=
EXTT2=
EXTT3=
EXTT4=
EXTT5=
EXTT6=
EXTT7=
EXTT8=
EXTT9=
EXTT10=
EXTT11=
EXTT12=
EXTT13=
PLAYORDER=
